<?xml version="1.0" standalone="no"?>
<!DOCTYPE svg PUBLIC "-//W3C//DTD SVG 20010904//EN"
 "http://www.w3.org/TR/2001/REC-SVG-20010904/DTD/svg10.dtd">
<svg version="1.0" xmlns="http://www.w3.org/2000/svg"
 width="402.000000pt" height="102.000000pt" viewBox="0 0 402.000000 102.000000"
 preserveAspectRatio="xMidYMid meet">
<metadata>
Created by potrace 1.10, written by Peter Selinger 2001-2011
</metadata>
<g transform="translate(0.000000,102.000000) scale(0.100000,-0.100000)"
fill="#000000" stroke="none">
<path d="M560 1000 c0 -18 -7 -20 -67 -20 -44 -1 -75 -6 -87 -15 -11 -8 -27
-15 -36 -15 -9 0 -30 -6 -46 -14 -96 -45 -116 -55 -145 -77 -51 -38 -139 -130
-139 -145 0 -8 -4 -14 -9 -14 -11 0 -21 -52 -28 -145 -5 -74 10 -170 35 -220
18 -36 92 -135 101 -135 3 0 20 -12 36 -28 17 -15 50 -37 75 -50 25 -12 52
-26 60 -31 26 -14 83 -33 130 -42 25 -4 61 -13 80 -18 45 -14 365 -14 410 0
19 5 55 14 80 18 47 9 104 28 130 42 8 5 35 19 60 31 82 42 174 133 212 209
38 79 48 121 48 203 0 73 -4 90 -31 144 -40 81 -116 159 -197 203 -20 11 -44
24 -52 29 -14 9 -44 21 -120 50 -19 7 -65 15 -102 18 -55 3 -68 7 -73 23 -6
18 -17 19 -166 19 -152 0 -159 -1 -159 -20z m314 -36 c9 -8 41 -18 74 -21 32
-3 61 -12 65 -19 4 -8 24 -14 43 -14 22 0 37 -6 40 -15 4 -8 16 -15 29 -15 13
0 25 -7 29 -15 3 -8 17 -15 31 -15 28 0 35 -24 9 -34 -9 -3 -61 -6 -117 -6
-74 1 -107 5 -121 15 -11 8 -31 15 -44 15 -13 0 -30 7 -38 15 -12 11 -39 15
-104 15 -72 0 -98 -4 -132 -22 -24 -12 -45 -25 -48 -28 -7 -9 -115 -24 -160
-22 -64 2 -125 13 -160 30 -30 14 -32 17 -13 20 12 2 27 10 33 18 7 8 23 14
35 14 13 0 25 7 29 15 3 8 18 15 33 15 16 0 37 6 48 14 11 7 42 16 69 18 26 3
55 13 64 22 24 23 283 24 306 0z m-28 -149 c10 -8 28 -15 39 -15 11 0 29 -6
40 -13 36 -25 153 -36 232 -24 40 7 78 18 85 25 6 6 19 12 28 12 17 0 90 -74
90 -90 0 -5 6 -15 13 -22 21 -24 47 -79 41 -89 -3 -5 -15 -9 -27 -9 -12 0 -31
-7 -41 -15 -11 -8 -32 -15 -47 -15 -15 0 -40 -7 -55 -15 -16 -8 -37 -15 -47
-15 -10 0 -25 -7 -33 -15 -23 -23 -45 -18 -85 18 -20 17 -60 52 -89 77 -29 25
-67 57 -84 72 -17 15 -34 28 -38 28 -4 0 -13 6 -20 13 -17 17 -77 47 -94 47
-12 0 -73 -29 -84 -40 -3 -3 -26 -19 -51 -37 -53 -37 -101 -47 -107 -21 -4 20
103 128 128 128 10 0 23 7 30 15 17 21 148 21 176 0z m-591 -36 c5 -5 23 -9
40 -9 16 -1 41 -7 55 -15 33 -19 110 -19 138 1 39 27 44 4 7 -34 -42 -43 -44
-64 -9 -91 49 -39 114 -20 200 58 9 8 37 16 62 18 47 5 67 -5 132 -67 8 -8 47
-40 85 -70 39 -30 81 -65 95 -77 14 -13 28 -23 31 -23 13 0 18 -44 7 -57 -20
-24 -46 -13 -104 42 -32 30 -63 54 -69 52 -22 -8 -8 -36 35 -72 57 -47 63 -58
48 -89 -16 -37 -39 -32 -86 19 -23 25 -50 45 -61 45 -31 0 -25 -18 20 -61 42
-39 47 -64 17 -82 -13 -9 -25 -2 -63 36 -26 25 -52 44 -56 41 -10 -6 19 -54
32 -54 5 0 9 -11 9 -25 0 -28 -16 -32 -47 -10 -15 10 -21 25 -21 46 1 24 -8
41 -38 70 -21 20 -51 51 -66 67 -16 18 -41 31 -62 35 -20 3 -43 12 -51 20 -11
11 -37 14 -112 12 -62 -2 -107 2 -123 9 -14 7 -40 20 -58 29 -19 9 -46 17 -61
17 -15 0 -36 7 -47 15 -10 8 -38 15 -60 15 -46 0 -79 24 -47 34 10 3 24 18 30
33 18 42 34 64 79 110 40 41 43 42 75 32 19 -7 38 -16 44 -20z m-164 -245 c8
-8 29 -14 45 -14 16 0 38 -7 48 -15 11 -8 33 -15 48 -15 43 0 78 -27 78 -61 0
-20 9 -35 33 -53 19 -15 36 -26 39 -26 3 0 20 -13 37 -29 17 -16 45 -32 61
-36 16 -3 34 -13 41 -21 6 -8 23 -14 36 -14 14 0 41 -14 60 -31 28 -24 41 -29
62 -24 14 4 28 11 29 16 5 12 49 12 57 -1 8 -13 62 -13 67 0 2 5 20 11 40 14
21 2 49 16 65 30 15 14 36 26 46 26 10 0 34 15 53 33 55 52 62 57 80 57 9 0
18 9 21 19 3 11 12 22 20 25 12 5 13 9 3 21 -7 9 -11 17 -9 18 34 24 64 37 86
37 15 0 41 7 57 15 15 8 39 15 53 15 13 0 32 4 42 10 17 9 18 5 13 -38 -2 -26
-14 -67 -25 -92 -20 -46 -116 -154 -152 -171 -11 -5 -27 -13 -35 -18 -8 -5
-22 -12 -30 -15 -8 -3 -22 -10 -30 -15 -49 -28 -81 -41 -100 -41 -12 0 -30 -5
-41 -10 -10 -6 -75 -17 -143 -26 -110 -13 -137 -13 -244 0 -67 8 -130 20 -141
25 -11 6 -29 11 -41 11 -12 0 -34 6 -48 14 -15 7 -49 24 -75 37 -64 32 -77 39
-111 69 -74 64 -136 148 -136 184 0 8 -7 16 -15 20 -15 6 -22 76 -8 89 9 9 44
-2 64 -19z m329 -79 c14 -17 50 -20 50 -5 0 19 49 10 60 -11 8 -14 19 -20 39
-17 35 3 61 -17 61 -48 0 -18 7 -24 34 -29 57 -11 68 -66 20 -106 -15 -12 -20
-10 -48 22 -26 31 -36 36 -63 32 -28 -5 -34 -2 -43 22 -7 19 -15 25 -26 21
-21 -8 -53 11 -64 38 -6 17 -19 25 -49 30 -34 5 -41 10 -41 29 0 13 3 27 7 30
12 12 50 7 63 -8z"/>
<path d="M3572 968 c-7 -7 -12 -36 -12 -65 0 -58 -8 -64 -47 -33 -32 25 -60
25 -97 1 -52 -35 -66 -68 -66 -158 0 -81 1 -83 35 -118 34 -33 40 -35 101 -35
51 0 73 5 96 21 41 29 50 59 53 169 2 52 6 125 10 163 l7 67 -34 0 c-19 0 -39
-5 -46 -12z m-35 -180 c32 -30 33 -110 1 -144 -40 -42 -84 -28 -113 35 -15 35
-16 45 -5 71 7 18 19 38 27 46 21 21 63 17 90 -8z"/>
<path d="M1742 867 c-52 -35 -72 -92 -72 -208 l0 -99 45 0 45 0 0 115 c0 103
2 115 19 125 29 15 49 12 72 -11 19 -19 21 -30 18 -122 l-4 -100 26 -8 c47
-12 52 0 50 114 -2 99 -1 106 21 121 30 22 54 20 79 -5 19 -19 21 -30 18 -123
l-4 -101 36 -3 37 -3 -6 128 c-5 138 -12 156 -65 187 -40 22 -82 20 -118 -6
l-30 -23 -39 23 c-48 27 -85 27 -128 -1z"/>
<path d="M2255 873 c-66 -35 -87 -88 -77 -193 4 -40 11 -56 40 -85 33 -33 40
-35 97 -35 53 0 68 4 104 31 23 16 41 35 38 42 -6 19 -66 20 -92 3 -14 -9 -37
-16 -53 -16 -34 0 -75 40 -70 67 3 16 13 18 93 16 114 -3 135 1 135 29 0 30
-22 90 -40 109 -43 47 -121 61 -175 32z m105 -68 c27 -14 43 -53 23 -56 -36
-4 -111 -6 -125 -2 -16 4 -17 7 -3 33 22 43 55 51 105 25z"/>
<path d="M2588 864 c-60 -39 -78 -86 -78 -204 l0 -101 43 3 42 3 0 102 c0 112
4 121 57 132 30 6 33 10 36 49 3 42 3 42 -30 41 -18 0 -50 -11 -70 -25z"/>
<path d="M2790 870 c-55 -29 -74 -71 -75 -164 l0 -78 40 -34 c36 -30 46 -34
103 -34 54 0 66 4 93 28 34 30 62 76 52 86 -4 3 -23 6 -44 6 -33 0 -41 -5 -54
-30 -10 -20 -23 -30 -39 -30 -75 0 -97 164 -25 189 24 8 33 6 56 -13 37 -31
68 -40 92 -27 17 10 18 14 8 42 -26 69 -131 100 -207 59z"/>
<path d="M3091 859 c-34 -24 -42 -35 -39 -57 4 -37 26 -38 78 -3 37 25 47 27
72 19 28 -10 39 -40 18 -53 -5 -3 -40 -12 -76 -20 -80 -17 -95 -29 -101 -86
-4 -35 0 -50 17 -71 20 -26 26 -28 98 -28 72 0 80 2 110 29 17 17 33 36 33 43
7 60 5 169 -3 193 -13 38 -64 65 -122 65 -32 0 -54 -8 -85 -31z m143 -183
c-11 -36 -36 -56 -69 -56 -54 0 -75 43 -32 69 56 36 114 28 101 -13z"/>
<path d="M3749 870 c-49 -26 -69 -71 -69 -157 0 -71 11 -98 55 -135 29 -25
140 -24 178 1 65 43 89 163 46 235 -42 71 -134 96 -210 56z m121 -70 c21 -16
25 -27 25 -78 0 -52 -4 -63 -25 -81 -33 -27 -62 -26 -87 2 -51 55 -53 105 -6
151 30 31 59 33 93 6z"/>
<path d="M2420 476 c0 -41 8 -48 49 -40 60 12 48 74 -15 74 -32 0 -34 -2 -34
-34z"/>
<path d="M2585 496 c-17 -12 -18 -27 -16 -176 3 -180 6 -191 68 -223 61 -31
143 -18 184 29 30 35 43 109 30 167 -13 57 -24 74 -61 100 -30 21 -83 22 -99
3 -14 -17 -49 -27 -56 -16 -3 5 0 32 6 60 9 43 9 54 -2 61 -20 12 -32 11 -54
-5z m169 -177 c53 -42 25 -169 -39 -169 -32 0 -62 26 -75 64 -9 29 -8 41 9 74
29 57 60 66 105 31z"/>
<path d="M2286 481 c-14 -16 -16 -42 -14 -207 l3 -189 40 0 40 0 1 208 2 207
-28 0 c-15 0 -34 -8 -44 -19z"/>
<path d="M2427 404 c-4 -4 -7 -79 -7 -166 l0 -158 34 0 c19 0 38 6 43 13 9 14
4 289 -5 299 -11 11 -57 20 -65 12z"/>
<path d="M2966 390 c-52 -34 -64 -64 -66 -180 -3 -136 -5 -130 30 -130 40 0
48 19 42 106 -6 92 9 134 47 134 38 0 48 10 56 53 l7 37 -43 -1 c-25 0 -57 -9
-73 -19z"/>
<path d="M3149 377 c-45 -40 -69 -92 -69 -151 0 -41 5 -50 50 -96 48 -47 54
-50 101 -50 30 0 64 7 82 17 80 46 88 88 15 77 -24 -4 -47 -10 -52 -15 -14
-12 -50 -11 -80 2 -24 11 -40 44 -30 61 3 4 55 8 116 8 l110 0 -7 47 c-12 83
-69 133 -150 133 -42 0 -56 -5 -86 -33z m129 -47 c40 -38 19 -60 -55 -60 -49
0 -53 2 -53 24 0 26 34 55 66 55 11 1 30 -8 42 -19z"/>
</g>
</svg>
