<?xml version="1.0" standalone="no"?>
<!DOCTYPE svg PUBLIC "-//W3C//DTD SVG 20010904//EN"
 "http://www.w3.org/TR/2001/REC-SVG-20010904/DTD/svg10.dtd">
<svg version="1.0" xmlns="http://www.w3.org/2000/svg"
 width="402.000000pt" height="102.000000pt" viewBox="0 0 402.000000 102.000000"
 preserveAspectRatio="xMidYMid meet">
<metadata>
Created by potrace 1.10, written by Peter Selinger 2001-2011
</metadata>
<g transform="translate(0.000000,102.000000) scale(0.100000,-0.100000)"
fill="#000000" stroke="none">
<path d="M570 1012 c0 -25 30 -32 146 -32 130 0 154 4 154 26 0 11 -28 14
-150 14 -82 0 -150 -4 -150 -8z"/>
<path d="M434 965 c-10 -8 -31 -15 -45 -15 -15 0 -32 -7 -39 -15 -7 -8 -23
-15 -35 -15 -12 0 -28 -7 -35 -15 -7 -8 -18 -15 -25 -15 -6 0 -22 -9 -34 -19
-13 -11 -28 -22 -34 -24 -18 -6 22 -47 47 -47 12 0 30 -7 40 -15 11 -8 39 -15
62 -15 24 0 46 -4 49 -10 3 -5 26 -10 50 -10 24 0 47 5 50 10 10 16 45 12 45
-5 0 -8 -4 -15 -10 -15 -5 0 -10 -8 -10 -17 1 -16 2 -16 13 -3 20 25 91 77
115 84 12 4 22 12 22 17 0 5 45 9 100 9 57 0 100 -4 100 -10 0 -5 17 -12 38
-16 20 -4 46 -13 57 -20 13 -10 53 -14 131 -14 97 0 114 3 134 20 13 11 37 20
54 20 l31 1 -27 22 c-50 42 -72 57 -84 57 -6 0 -17 7 -24 15 -7 8 -23 15 -35
15 -12 0 -28 7 -35 15 -7 8 -26 15 -42 15 -16 0 -36 7 -44 15 -16 15 -79 20
-109 9 -28 -11 4 -24 61 -24 37 0 54 -4 58 -15 3 -10 19 -15 46 -15 22 0 40
-5 40 -11 0 -5 14 -15 30 -20 17 -6 30 -15 30 -20 0 -5 11 -9 25 -9 20 0 25
-5 25 -24 0 -32 -14 -36 -145 -36 -88 0 -115 3 -125 15 -7 8 -25 15 -39 15
-15 0 -36 7 -47 15 -22 16 -204 22 -204 6 0 -5 -13 -12 -29 -16 -16 -3 -35
-13 -42 -21 -6 -8 -28 -14 -49 -14 -21 0 -51 -7 -66 -15 -37 -19 -78 -19 -94
0 -7 8 -28 15 -47 15 -36 0 -113 34 -113 50 0 6 8 10 17 10 23 0 103 40 103
51 0 5 17 9 39 9 22 0 44 6 51 15 8 9 29 15 55 15 50 0 77 8 69 21 -9 15 -98
10 -120 -6z"/>
<path d="M3577 952 c-10 -11 -17 -36 -17 -60 0 -46 -7 -49 -51 -27 -43 23
-103 3 -135 -44 -19 -29 -24 -48 -24 -101 0 -105 43 -153 140 -154 47 -1 63 4
92 26 45 35 57 86 55 251 -1 123 -1 127 -22 127 -12 0 -29 -8 -38 -18z m-34
-159 c12 -12 17 -31 17 -71 0 -68 -25 -102 -77 -102 -28 0 -35 6 -53 40 -28
56 -26 92 10 130 25 27 35 31 58 25 15 -3 35 -14 45 -22z"/>
<path d="M1759 864 c-57 -30 -64 -47 -68 -175 l-3 -119 31 0 31 0 0 93 c0 50
3 102 6 115 12 44 92 42 112 -3 7 -14 12 -67 12 -116 l0 -90 28 3 27 3 3 105
c3 114 10 130 61 130 50 0 56 -12 61 -127 l5 -108 28 -3 27 -3 0 111 c0 128
-13 162 -69 186 -43 18 -63 18 -106 -3 -33 -16 -38 -16 -83 0 -54 20 -68 20
-103 1z"/>
<path d="M2268 866 c-72 -22 -103 -89 -88 -189 7 -50 29 -76 82 -100 47 -22
70 -21 122 3 48 22 71 44 61 60 -7 12 -63 4 -79 -11 -6 -5 -26 -9 -46 -9 -42
0 -84 36 -78 67 3 16 16 18 108 21 58 1 109 7 113 11 11 11 -18 98 -40 119
-18 18 -79 42 -103 41 -8 -1 -32 -6 -52 -13z m89 -57 c24 -15 33 -27 31 -43
-3 -19 -9 -21 -68 -21 -60 0 -65 2 -68 22 -2 16 6 28 30 43 40 24 34 24 75 -1z"/>
<path d="M2619 866 c-76 -24 -99 -64 -104 -184 -2 -49 0 -94 4 -101 5 -7 21
-11 37 -9 l29 3 5 96 c5 103 17 129 55 129 31 0 49 24 41 55 -7 27 -13 28 -67
11z"/>
<path d="M2803 864 c-61 -22 -83 -62 -83 -153 0 -68 2 -73 34 -105 58 -55 136
-57 200 -4 35 29 46 60 25 73 -18 12 -55 -4 -69 -30 -10 -19 -21 -25 -45 -25
-49 0 -70 30 -70 102 0 51 4 63 24 79 31 26 57 24 93 -7 35 -29 72 -29 76 1 3
25 -31 58 -77 74 -42 14 -55 13 -108 -5z"/>
<path d="M3125 868 c-42 -15 -65 -37 -65 -65 0 -31 30 -30 68 2 33 28 58 31
85 11 40 -31 12 -62 -68 -73 -70 -9 -95 -34 -95 -93 0 -45 3 -50 36 -70 68
-42 185 -9 210 60 17 48 17 133 0 175 -23 55 -99 78 -171 53z m103 -182 c6
-48 -45 -84 -93 -66 -51 19 -21 80 46 93 37 7 44 3 47 -27z"/>
<path d="M3760 864 c-53 -22 -80 -69 -80 -136 0 -74 11 -100 55 -134 105 -80
257 10 242 142 -6 54 -46 109 -94 129 -44 19 -78 18 -123 -1z m100 -51 c46
-27 56 -119 19 -167 -31 -40 -85 -34 -116 13 -34 51 -30 93 12 136 41 40 46
41 85 18z"/>
<path d="M145 821 c-6 -11 9 -23 19 -14 9 9 7 23 -3 23 -6 0 -12 -4 -16 -9z"/>
<path d="M684 725 c-4 -8 -10 -15 -14 -15 -13 0 -79 -44 -80 -52 0 -13 28 -9
42 5 7 7 21 16 31 20 9 3 17 11 17 16 0 5 14 12 30 16 17 4 30 11 30 16 0 15
-50 10 -56 -6z"/>
<path d="M784 725 c11 -8 26 -15 33 -15 7 0 13 -4 13 -8 0 -5 27 -28 60 -52
33 -24 60 -47 60 -52 0 -4 4 -8 10 -8 5 0 24 -15 42 -33 18 -18 42 -39 53 -47
24 -17 65 -69 65 -81 0 -5 -11 -16 -25 -25 -21 -14 -30 -15 -52 -5 -23 11 -25
10 -20 -9 3 -11 0 -31 -6 -45 -16 -33 -56 -33 -92 1 -34 31 -42 26 -15 -9 27
-34 13 -77 -25 -77 -14 0 -25 5 -25 10 0 20 -29 9 -32 -12 -4 -31 -31 -34 -68
-6 l-32 23 -18 -22 c-25 -31 -55 -29 -82 7 -17 24 -29 30 -57 30 -25 0 -40 6
-49 20 -7 12 -18 17 -27 13 -18 -6 -65 33 -65 54 0 8 -8 13 -17 12 -57 -9 -91
72 -37 85 17 5 35 1 52 -10 18 -12 27 -13 30 -6 2 7 14 12 27 12 13 0 26 4 29
9 9 14 -16 20 -37 9 -9 -5 -23 -6 -30 -1 -6 4 -42 8 -79 8 -48 1 -72 6 -86 18
-10 9 -28 17 -40 17 -11 0 -23 4 -27 9 -3 6 -27 13 -53 17 -26 3 -53 11 -60
17 -7 6 -33 13 -58 17 l-44 7 0 -58 c0 -137 58 -261 161 -346 19 -15 36 -31
39 -35 3 -4 17 -12 30 -18 14 -6 45 -22 70 -35 25 -14 52 -25 60 -25 9 0 21
-5 26 -10 6 -6 33 -15 60 -20 27 -5 67 -13 89 -19 63 -17 333 -14 391 4 27 8
60 15 74 15 14 0 38 7 54 15 15 8 33 15 40 15 6 0 31 11 56 25 25 13 56 29 70
35 13 6 27 14 30 18 3 4 20 20 39 35 102 84 160 209 161 346 l0 54 -37 -6
c-21 -4 -39 -11 -41 -17 -2 -5 -18 -10 -35 -10 -18 0 -45 -7 -61 -15 -15 -8
-39 -15 -51 -15 -13 0 -30 -6 -37 -13 -27 -27 -71 -27 -110 0 -21 14 -38 30
-38 34 0 5 -4 9 -10 9 -5 0 -24 15 -42 33 -18 17 -48 43 -67 57 -18 14 -41 33
-49 43 -9 9 -22 17 -28 17 -7 0 -14 7 -18 15 -3 8 -17 15 -33 15 -27 -1 -27
-1 -9 -15z m-689 -180 c22 -8 47 -15 55 -15 8 0 28 -7 44 -15 15 -8 39 -15 52
-15 32 0 72 -39 76 -75 2 -23 12 -35 41 -50 21 -11 43 -28 48 -37 6 -10 14
-18 19 -18 5 0 32 -13 60 -30 28 -16 60 -30 72 -30 11 0 37 -13 58 -30 42 -33
62 -37 80 -15 15 18 33 19 78 3 28 -10 36 -10 39 0 3 7 22 12 49 12 30 0 46 5
50 15 4 8 12 15 19 15 7 0 15 7 19 15 3 8 16 15 29 15 16 0 38 16 65 45 22 25
49 45 60 45 21 0 47 46 32 55 -6 4 -10 9 -10 13 0 12 63 44 100 53 19 4 60 15
90 24 78 24 110 29 110 17 0 -16 -31 -115 -41 -132 -5 -8 -13 -24 -18 -36 -14
-32 -130 -144 -149 -144 -5 0 -15 -7 -22 -15 -7 -8 -20 -15 -29 -15 -9 0 -22
-5 -29 -12 -28 -28 -200 -73 -332 -86 -47 -4 -123 -4 -170 0 -133 14 -304 58
-332 86 -7 7 -20 12 -29 12 -9 0 -22 7 -29 15 -7 8 -18 15 -26 15 -7 0 -17 6
-21 12 -4 7 -17 18 -28 24 -30 16 -113 123 -120 155 -4 15 -13 33 -21 40 -8 7
-14 29 -14 55 0 50 8 53 75 29z"/>
<path d="M474 685 c-3 -8 -3 -19 1 -25 11 -18 25 -11 25 15 0 27 -17 34 -26
10z"/>
<path d="M516 641 c-3 -5 1 -12 10 -15 20 -8 54 2 54 15 0 12 -57 12 -64 0z"/>
<path d="M2296 475 c-14 -21 -16 -50 -14 -198 l3 -172 30 0 30 0 0 195 c0 171
-2 195 -16 198 -9 2 -24 -9 -33 -23z"/>
<path d="M2424 485 c-10 -25 4 -45 29 -45 34 0 54 25 37 45 -7 8 -23 15 -37
15 -13 0 -26 -7 -29 -15z"/>
<path d="M2586 485 c-13 -14 -16 -41 -16 -164 0 -135 2 -151 21 -175 24 -30
78 -56 119 -56 35 0 91 23 111 47 55 62 45 180 -19 233 -37 30 -88 40 -107 21
-6 -5 -21 -11 -35 -13 -24 -3 -25 0 -30 56 -5 63 -17 77 -44 51z m161 -156
c34 -21 34 -22 31 -87 -3 -57 -6 -67 -30 -85 -23 -17 -31 -18 -55 -8 -33 14
-63 61 -63 101 0 20 11 41 35 65 20 19 38 35 42 35 3 0 21 -9 40 -21z"/>
<path d="M535 460 c-3 -6 1 -13 10 -16 19 -8 30 0 20 15 -8 14 -22 14 -30 1z"/>
<path d="M622 429 c2 -7 10 -15 17 -17 8 -3 12 1 9 9 -2 7 -10 15 -17 17 -8 3
-12 -1 -9 -9z"/>
<path d="M982 429 c2 -7 10 -15 17 -17 8 -3 12 1 9 9 -2 7 -10 15 -17 17 -8 3
-12 -1 -9 -9z"/>
<path d="M2426 384 c-9 -24 -7 -257 3 -272 4 -8 19 -12 32 -10 24 3 24 5 29
133 4 115 3 132 -12 148 -22 21 -44 22 -52 1z"/>
<path d="M2972 381 c-60 -31 -73 -65 -70 -178 3 -97 3 -98 28 -98 24 0 25 2
30 85 6 99 18 126 62 135 37 8 48 20 48 53 0 18 -5 22 -32 21 -18 -1 -48 -9
-66 -18z"/>
<path d="M3161 381 c-69 -37 -94 -153 -48 -222 25 -37 77 -68 118 -69 50 0
146 51 133 71 -8 14 -56 10 -84 -6 -14 -8 -34 -14 -46 -15 -28 0 -76 45 -72
68 3 14 19 18 108 22 105 5 105 5 108 32 5 39 -32 104 -69 122 -42 21 -106 20
-148 -3z m117 -47 c15 -10 22 -24 20 -37 -3 -20 -9 -22 -63 -22 -50 0 -60 3
-63 18 -9 47 60 73 106 41z"/>
<path d="M650 375 c0 -19 24 -30 41 -19 9 5 7 11 -6 21 -24 17 -35 17 -35 -2z"/>
<path d="M712 336 c1 -10 8 -17 13 -17 15 1 12 24 -3 29 -9 3 -13 -2 -10 -12z"/>
</g>
</svg>
